HIERARCHY
ROOT hip
{
	OFFSET 0.000000 0.000000 0.000000 
	CHANNELS 6 Xposition Yposition Zposition Xrotation Zrotation Yrotation
	JOINT abdomen
	{
		OFFSET 0.000000 3.402643 0.000000 
		CHANNELS 3 Xrotation Zrotation Yrotation
		JOINT chest
		{
			OFFSET 0.000000 8.438565 -0.680529 
			CHANNELS 3 Xrotation Zrotation Yrotation
			JOINT neck
			{
				OFFSET 0.000000 10.207942 -0.272212 
				CHANNELS 3 Xrotation Zrotation Yrotation
				JOINT head
				{
					OFFSET 0.000000 3.130431 0.000000 
					CHANNELS 3 Xrotation Zrotation Yrotation
					End Site
					{
						OFFSET 0.000000 3.130435 0.000000 
					}
				}
			}
			JOINT lCollar
			{
				OFFSET 3.470700 6.669187 -0.816635 
				CHANNELS 3 Yrotation Zrotation Xrotation
				JOINT lShldr
				{
					OFFSET 3.198488 0.000000 0.000000 
					CHANNELS 3 Zrotation Yrotation Xrotation
					JOINT lForeArm
					{
						OFFSET 10.139888 0.000000 0.000000 
						CHANNELS 3 Yrotation Zrotation Xrotation
						JOINT lHand
						{
							OFFSET 8.370511 0.000000 0.000000 
							CHANNELS 3 Zrotation Yrotation Xrotation
							End Site
							{
								OFFSET 4.083176 0.000000 0.000000 
							}
						}
					}
				}
			}
			JOINT rCollar
			{
				OFFSET -3.470700 6.669187 -0.816635 
				CHANNELS 3 Yrotation Zrotation Xrotation
				JOINT rShldr
				{
					OFFSET -3.198488 0.000000 0.000000 
					CHANNELS 3 Zrotation Yrotation Xrotation
					JOINT rForeArm
					{
						OFFSET -10.139888 0.000000 0.000000 
						CHANNELS 3 Yrotation Zrotation Xrotation
						JOINT rHand
						{
							OFFSET -8.370511 0.000000 0.000000 
							CHANNELS 3 Zrotation Yrotation Xrotation
							End Site
							{
								OFFSET -4.083176 0.000000 0.000000 
							}
						}
					}
				}
			}
		}
	}
	JOINT lThigh
	{
		OFFSET 5.308129 -1.633274 1.361059 
		CHANNELS 3 Xrotation Zrotation Yrotation
		JOINT lShin
		{
			OFFSET -2.041588 -20.007561 0.000000 
			CHANNELS 3 Xrotation Zrotation Yrotation
			JOINT lFoot
			{
				OFFSET 0.000000 -19.190928 -1.224953 
				CHANNELS 3 Xrotation Yrotation Zrotation
				End Site
				{
					OFFSET 0.000000 -2.449906 4.627600 
				}
			}
		}
	}
	JOINT rThigh
	{
		OFFSET -5.308129 -1.633274 1.361059 
		CHANNELS 3 Xrotation Zrotation Yrotation
		JOINT rShin
		{
			OFFSET 2.041588 -20.007561 0.000000 
			CHANNELS 3 Xrotation Zrotation Yrotation
			JOINT rFoot
			{
				OFFSET 0.000000 -19.190928 -1.224953 
				CHANNELS 3 Xrotation Yrotation Zrotation
				End Site
				{
					OFFSET 0.000000 -2.449906 4.627600 
				}
			}
		}
	}
}
MOTION
Frames: 12
Frame Time: 0.033333
-1.104119 49.997089 0.694696 -2.225735 -0.933293 -5.430555 0.000000 0.000000 0.000000 3.733765 -1.308578 0.283129 8.650537 -0.859192 -1.181801 23.463604 1.601233 -1.162474 -5.566028 -12.458827 3.352256 -46.042076 9.992641 4.117501 -42.234295 -7.283632 18.541063 0.507690 7.663709 -3.533130 8.548590 17.261814 2.883741 55.568016 -13.761551 10.709171 49.579060 8.453734 26.007175 -12.040359 -9.908864 -2.905491 -0.089144 9.424763 7.920572 12.750082 -2.832335 8.402763 -8.190801 0.495328 -6.812498 0.663358 -8.767006 -6.088718 8.503078 1.980642 -1.428162 -5.625680 -0.371462 7.361219 
-1.622676 50.056965 0.708344 -2.353863 -0.495682 -5.586151 0.000000 0.000000 0.000000 3.760242 -1.210902 0.439355 9.065624 -0.869045 -0.849808 22.711695 1.220492 -1.064628 -4.523611 -11.584550 3.534610 -46.885391 10.436212 4.372881 -42.346500 -7.070275 19.392826 0.595309 7.365807 -3.527028 8.453504 16.956976 2.961132 57.626915 -15.086695 10.282475 49.850666 8.136651 26.382940 -9.809060 -8.707311 -3.131745 1.618982 9.220600 7.742556 9.880197 -2.480554 8.437079 -6.813365 0.471043 -7.438524 0.282448 -8.269658 -5.528651 9.209958 1.578928 -2.711321 -5.915143 -0.368363 6.942905 
-2.080237 50.085133 0.715424 -2.677207 -0.291640 -5.459063 0.000000 0.000000 0.000000 3.997894 -0.839822 0.410112 9.537541 -0.527306 -0.683655 21.998941 0.742078 -0.986372 -3.993986 -10.346645 3.860455 -48.526638 10.980673 4.477437 -42.577923 -6.735867 20.282244 0.714121 7.021096 -3.527617 8.301060 17.619883 3.132395 58.522316 -16.779339 8.951545 50.874992 7.848184 22.850979 -11.033751 -9.097709 -3.027464 2.839393 9.116521 7.541899 7.422991 -1.940292 9.384783 -5.091719 0.378740 -8.089900 0.340886 -8.137948 -5.884444 9.988064 1.970967 -2.584660 -6.472209 -0.363310 6.145557 
-2.524952 50.087894 0.681087 -2.999413 -0.223874 -4.638713 0.000000 0.000000 0.000000 4.355635 -0.244141 -0.039104 9.931798 -0.009764 -0.917970 21.640778 -0.009764 -0.898439 -4.248163 -9.437753 4.241174 -50.299747 11.890166 4.588637 -43.446732 -6.449056 20.007236 1.365179 7.815920 -3.502047 7.795710 18.593246 3.367671 58.505508 -18.377779 7.119951 51.722675 7.383191 20.624084 -13.555507 -8.502131 -2.974690 3.583098 9.257288 7.298090 5.756793 -1.336434 9.480734 -3.739154 0.332957 -8.753246 0.517151 -8.083344 -6.531611 10.818391 2.693606 -2.579804 -7.143036 -0.348496 5.308491 
-2.947766 50.070480 0.593626 -3.198438 -0.087766 -3.056652 0.000000 0.000000 0.000000 4.669971 0.429617 -1.035127 10.212328 0.458820 -1.533232 21.433645 -0.615184 -0.732485 -5.124417 -8.531557 4.608823 -52.649830 12.709636 4.623497 -43.813980 -6.312414 18.983364 2.469281 7.025613 -3.472703 6.881670 19.388504 3.576631 57.477962 -19.566242 6.216980 51.997890 7.050247 21.466179 -13.783665 -7.340655 -3.089678 3.866669 9.403989 6.812672 4.715691 -0.690016 8.251935 -2.936812 0.292925 -9.359742 0.526458 -8.034896 -7.228079 11.899162 3.424503 -3.442848 -7.928069 -0.343863 4.571730 
-3.343784 50.008915 0.519900 -3.374636 0.253847 -1.240222 0.000000 0.000000 0.000000 4.921794 1.024643 -2.187849 10.420156 0.507446 -2.177736 21.526688 -0.312483 -0.595748 -6.232703 -8.301207 4.879395 -54.886395 13.291213 4.751090 -44.100109 -6.397034 17.211140 3.010643 6.512197 -3.457840 5.781082 19.773161 3.759435 55.583817 -20.201406 6.693606 51.435532 7.251589 21.355688 -13.186018 -7.510465 -3.086613 3.678564 9.360669 6.015268 4.394980 0.000608 6.963552 -2.488356 0.251577 -10.110618 0.204748 -8.299261 -8.102914 13.742631 4.145898 -4.341553 -9.164351 -0.323190 3.961622 
-3.722949 49.905869 0.393289 -3.118643 0.654266 0.556716 0.000000 0.000000 0.000000 4.795403 1.472564 -3.018337 10.403194 0.751078 -2.763818 22.029011 0.205066 -0.624996 -7.243723 -7.945857 4.796702 -57.342579 13.631700 5.345716 -44.724506 -6.628115 15.659479 3.166921 7.981867 -3.435046 5.272038 20.713104 3.536977 52.624939 -21.179441 7.565812 50.282776 7.732058 20.971472 -12.575507 -7.573431 -3.104797 2.440261 9.266099 4.992254 5.142494 0.683479 6.221530 -2.400159 0.221615 -10.845528 -0.859370 -8.520520 -8.584573 15.994388 4.635094 -5.201442 -10.525971 -0.332380 3.528092 
-4.092677 49.835339 0.177679 -2.620261 0.995444 2.070678 0.000000 0.000000 0.000000 4.570687 1.823032 -3.360780 10.289983 1.247963 -3.272196 22.056002 0.341767 -0.761705 -7.974863 -7.514275 4.637311 -59.509319 13.237341 7.096685 -44.865055 -7.412651 15.008755 3.172872 8.491136 -3.421618 5.292267 22.031908 3.171674 49.398026 -22.431736 8.127704 48.653851 8.232054 22.375004 -12.204468 -8.272120 -3.051440 1.229503 9.079271 4.163744 5.254059 1.190324 6.438331 -1.884071 0.189888 -11.354877 -2.128116 -8.410323 -8.470773 17.558121 4.628904 -6.673322 -11.286825 -0.355752 3.436677 
-4.461550 49.837261 -0.054432 -2.197108 1.394289 3.214077 0.000000 0.000000 0.000000 4.457888 2.027573 -3.449251 10.050110 1.413365 -3.506718 21.658621 0.712801 -0.908254 -8.342793 -7.750930 4.518022 -60.243465 12.099359 10.867993 -45.184460 -9.013054 14.973477 2.436495 9.275854 -3.456991 5.193877 22.269215 3.062152 47.605732 -23.144627 7.882419 46.415489 8.564467 24.913155 -11.978760 -9.256968 -2.971343 0.408956 8.782878 3.710934 4.960094 1.287972 7.367948 -0.834530 0.088158 -11.460961 -3.064704 -8.235166 -8.221179 18.094917 4.443271 -8.390013 -11.399044 -0.378150 3.372191 
-4.712346 49.884953 -0.233442 -2.351634 2.230733 4.056120 0.000000 0.000000 0.000000 4.787148 1.900811 -3.468450 9.965616 1.159786 -3.623687 21.048248 1.464614 -1.015792 -8.550299 -8.180068 4.772899 -60.810390 10.459824 15.441192 -45.729546 -10.487967 18.349792 0.412948 8.636686 -3.557970 4.980766 21.709740 3.423998 46.910801 -23.955818 6.347075 45.078598 8.585566 24.917883 -10.823093 -9.849616 -2.984532 -2.431150 8.122168 3.052765 9.643992 1.365438 8.805427 0.046687 -0.005724 -11.745253 -3.123834 -8.772807 -8.518137 18.385376 4.422410 -8.983300 -11.424126 -0.338919 3.196562 
-4.946068 49.917019 -0.406490 -2.403017 3.095920 4.498803 0.000000 0.000000 0.000000 5.053672 1.618435 -3.282422 9.736937 0.653166 -3.369256 19.845438 2.489789 -1.084658 -8.753546 -8.627604 4.949941 -61.682098 9.250940 17.728548 -46.598171 -11.314939 17.042685 -0.370924 12.550674 -3.634037 4.840242 20.346529 3.830558 47.521923 -24.432451 4.056152 44.404835 8.369516 23.084702 -9.673655 -10.630051 -2.998299 -6.590726 7.654831 2.731723 16.714922 0.973619 9.641787 0.923972 -0.099636 -12.068205 -3.417058 -9.379917 -8.863053 18.884718 4.471776 -9.140780 -11.553290 -0.303681 2.867636 
-5.214319 49.931271 -0.578808 -1.932373 3.486784 4.187973 0.000000 0.000000 0.000000 4.926192 1.443893 -2.539732 9.228499 0.429243 -2.607495 18.823217 3.153658 -1.153822 -8.450708 -8.661820 4.779401 -62.777245 9.709255 16.144442 -47.845192 -10.859275 12.259132 3.234252 17.608728 -3.311790 5.293050 19.076582 3.826320 48.423466 -24.740334 2.114298 43.936077 8.084686 21.126930 -9.510087 -11.413043 -2.954619 -9.088422 7.780041 3.159643 19.966217 0.357991 10.454794 2.115939 -0.206095 -12.057897 -4.354856 -9.479527 -8.704113 19.208057 4.472443 -9.153848 -11.536964 -0.261955 2.453976 
